# xmcd
#
# Track frame offsets:
#	150
#	15266
#	23805
#	35733
#	43112
#	53038
#	64106
#	75564
#	88924
#	101830
#	113110
#	126645
#	138414
#	150965
#	161910
#	174904
#
# Disc length: 2486 seconds
#
# Revision: 1
# Processed by: cddbd v1.5.2PL0 Copyright (c) Steve Scherf et al.
# Submitted via: audiograbber 1.83.01
#
DISCID=cf09b410
DTITLE=Various Artist - Country Legends CD8 For The Good Times
DYEAR=2005
DGENRE=Country
TTITLE0=Kenny Rogers - For The Good Times
TTITLE1=Johnny Cash - Country Boy
TTITLE2=Barbara Fairchild - You Can't Put The City In A Country Girl
TTITLE3=Buck Owens - That Ain't Right Baby
TTITLE4=Willie Nelson - Healing Hands Of Time
TTITLE5=Donna Fargo - Wishful Thinking
TTITLE6=Hank Locklin - Send Me The Pillow That You Dream On
TTITLE7=Jerry Lee Lewis - You Win Again
TTITLE8=Dolly Parton - Little Blossom
TTITLE9=Waylon Jennings - Big Mamou
TTITLE10=Freddy Fender - Just Because
TTITLE11=Patsy Cline - I've Loved And Lost Again
TTITLE12=Conway Twitty - Crazy Dreams
TTITLE13=Loretta Lynn - Spring Fever
TTITLE14=Hank Williams - I Can't Get You Off My Mind
TTITLE15=Lynn Anderson - Rodeo Cowboy
EXTD=
EXTT0=
EXTT1=
EXTT2=
EXTT3=
EXTT4=
EXTT5=
EXTT6=
EXTT7=
EXTT8=
EXTT9=
EXTT10=
EXTT11=
EXTT12=
EXTT13=
EXTT14=
EXTT15=
PLAYORDER=
